<svg width="92" height="92" viewBox="0 0 92 92" fill="none" xmlns="http://www.w3.org/2000/svg">
<path d="M69 30.6667V19.1667C69 14.9308 65.5692 11.5 61.3333 11.5H19.1667C14.9308 11.5 11.5 14.9308 11.5 19.1667V72.8333C11.5 77.0692 14.9308 80.5 19.1667 80.5H30.6667" stroke="white" stroke-width="2" stroke-linecap="round" stroke-linejoin="round"/>
<path fill-rule="evenodd" clip-rule="evenodd" d="M28.75 65.1667V65.1667C25.576 65.1667 23 62.5907 23 59.4167V59.4167C23 56.2427 25.576 53.6667 28.75 53.6667V53.6667C31.924 53.6667 34.5 56.2427 34.5 59.4167V59.4167C34.5 62.5907 31.924 65.1667 28.75 65.1667Z" stroke="white" stroke-width="2" stroke-linecap="round" stroke-linejoin="round"/>
<path fill-rule="evenodd" clip-rule="evenodd" d="M80.5 75.0797V71.7638C80.5 70.1155 79.4458 68.6473 77.878 68.126L69 65.1667V57.5L71.6718 55.7903C73.6383 54.5292 74.5545 52.1295 73.922 49.8793V49.8793C73.278 47.5832 71.1888 46 68.8045 46H57.6955C55.315 46 53.222 47.5832 52.578 49.8793V49.8793C51.9455 52.1295 52.8617 54.5292 54.8282 55.7903L57.5 57.5V65.1667L48.622 68.126C47.0542 68.6473 46 70.1117 46 71.7638V75.0797C46 76.0955 46.4025 77.073 47.1232 77.7898L48.7102 79.3768C49.4308 80.0975 50.4045 80.5 51.4203 80.5H75.0797C76.0955 80.5 77.073 80.0975 77.7898 79.3768L79.3768 77.7898C80.0975 77.0692 80.5 76.0955 80.5 75.0797Z" stroke="white" stroke-width="2" stroke-linecap="round" stroke-linejoin="round"/>
<path d="M23 26.8333H53.6667" stroke="white" stroke-width="2" stroke-linecap="round" stroke-linejoin="round"/>
<path d="M23 40.25H38.3333" stroke="white" stroke-width="2" stroke-linecap="round" stroke-linejoin="round"/>
</svg>
