<svg width="92" height="92" viewBox="0 0 92 92" fill="none" xmlns="http://www.w3.org/2000/svg">
<path d="M11.4922 60.381H20.4429C21.799 60.3819 23.0999 59.8439 24.0593 58.8854V58.8854C25.0177 57.926 25.5557 56.6251 25.5549 55.269V34.8135C25.5557 33.4574 25.0177 32.1565 24.0593 31.1972V31.1972C23.0999 30.2387 21.799 29.7007 20.4429 29.7016H11.519" stroke="white" stroke-width="2" stroke-linecap="round" stroke-linejoin="round"/>
<path d="M80.4929 29.7016H71.5729C70.2168 29.7007 68.9159 30.2387 67.9566 31.1972V31.1972C66.9981 32.1565 66.4601 33.4574 66.4609 34.8135V55.269C66.4601 56.6251 66.9981 57.926 67.9566 58.8854V58.8854C68.9159 59.8439 70.2168 60.3819 71.5729 60.381H80.4929" stroke="white" stroke-width="2" stroke-linecap="round" stroke-linejoin="round"/>
<rect x="11.4922" y="11.4856" width="69.0287" height="69.0287" rx="5" stroke="white" stroke-width="2" stroke-linecap="round" stroke-linejoin="round"/>
<path d="M66.5326 56.1511H63.2346C62.1376 56.1502 61.0533 56.3857 60.0554 56.8414L43.9219 64.1891" stroke="white" stroke-width="2" stroke-linecap="round" stroke-linejoin="round"/>
<path d="M40.8063 33.222C38.8663 32.0666 36.5138 31.8306 34.3828 32.5777L25.5625 35.7569" stroke="white" stroke-width="2" stroke-linecap="round" stroke-linejoin="round"/>
<path d="M67.0729 32.3323L56.0436 27.4773C53.68 26.4371 50.9515 26.6562 48.7841 28.0602L38.7749 34.5451C37.2708 35.52 36.3045 37.138 36.1596 38.9246C36.0146 40.7112 36.7074 42.4638 38.0348 43.6684V43.6684C39.7577 45.2287 42.2478 45.6049 44.3547 44.6233L50.3219 41.8391" stroke="white" stroke-width="2" stroke-linecap="round" stroke-linejoin="round"/>
<path d="M50.3228 41.8353L53.3524 44.5849C54.9518 46.034 55.8666 48.0899 55.8725 50.2481C55.8783 52.4063 54.9746 54.4671 53.3831 55.9248L45.648 63.0041C42.7282 65.6766 38.2542 65.6882 35.3205 63.0309L30.0053 58.2104C28.743 57.0883 27.1455 56.4143 25.4609 56.293" stroke="white" stroke-width="2" stroke-linecap="round" stroke-linejoin="round"/>
</svg>
